<svg id="visual" viewBox="0 0 540 960" width="540" height="960" xmlns="http://www.w3.org/2000/svg" xmlns:xlink="http://www.w3.org/1999/xlink" version="1.1"><g stroke-width="1" stroke-linejoin="bevel"><path d="M261 542.3L298 594.3L346 598Z" fill="#010e18" stroke="#010e18"></path><path d="M346 598L391 446.7L261 542.3Z" fill="#000613" stroke="#000613"></path><path d="M346 598L453 485.3L391 446.7Z" fill="#010e18" stroke="#010e18"></path><path d="M391 446.7L202 420.7L261 542.3Z" fill="#000000" stroke="#000000"></path><path d="M453 485.3L405 377L391 446.7Z" fill="#000412" stroke="#000412"></path><path d="M391 446.7L292 352L202 420.7Z" fill="#000211" stroke="#000211"></path><path d="M405 377L292 352L391 446.7Z" fill="#010e18" stroke="#010e18"></path><path d="M202 420.7L152 599.3L261 542.3Z" fill="#000613" stroke="#000613"></path><path d="M261 542.3L152 599.3L298 594.3Z" fill="#000000" stroke="#000000"></path><path d="M298 594.3L271 751.7L346 598Z" fill="#010f19" stroke="#010f19"></path><path d="M540 412.7L411 361.7L405 377Z" fill="#000c17" stroke="#000c17"></path><path d="M405 377L411 361.7L292 352Z" fill="#000c17" stroke="#000c17"></path><path d="M152 599.3L228 712.7L298 594.3Z" fill="#000915" stroke="#000915"></path><path d="M481 700L540 575L346 598Z" fill="#000412" stroke="#000412"></path><path d="M346 598L540 575L453 485.3Z" fill="#000613" stroke="#000613"></path><path d="M453 485.3L540 412.7L405 377Z" fill="#000714" stroke="#000714"></path><path d="M540 575L540 476.3L453 485.3Z" fill="#000a16" stroke="#000a16"></path><path d="M271 751.7L467 708.7L346 598Z" fill="#010f19" stroke="#010f19"></path><path d="M228 712.7L271 751.7L298 594.3Z" fill="#010e18" stroke="#010e18"></path><path d="M467 708.7L481 700L346 598Z" fill="#000c17" stroke="#000c17"></path><path d="M152 599.3L165 695L228 712.7Z" fill="#010f19" stroke="#010f19"></path><path d="M228 712.7L255 812.3L271 751.7Z" fill="#000a16" stroke="#000a16"></path><path d="M540 476.3L540 412.7L453 485.3Z" fill="#000714" stroke="#000714"></path><path d="M54 629L88 678.7L152 599.3Z" fill="#000a16" stroke="#000a16"></path><path d="M152 599.3L88 678.7L165 695Z" fill="#000714" stroke="#000714"></path><path d="M165 695L255 812.3L228 712.7Z" fill="#010f19" stroke="#010f19"></path><path d="M77 334L51 485.7L202 420.7Z" fill="#000211" stroke="#000211"></path><path d="M202 420.7L51 485.7L152 599.3Z" fill="#010d18" stroke="#010d18"></path><path d="M156 891.3L255 812.3L165 695Z" fill="#000714" stroke="#000714"></path><path d="M271 751.7L327 884.3L467 708.7Z" fill="#000000" stroke="#000000"></path><path d="M51 485.7L54 629L152 599.3Z" fill="#010d18" stroke="#010d18"></path><path d="M411 361.7L281 245.3L292 352Z" fill="#000211" stroke="#000211"></path><path d="M292 352L165 285L202 420.7Z" fill="#010f19" stroke="#010f19"></path><path d="M277 221.3L281 245.3L356 151.7Z" fill="#000613" stroke="#000613"></path><path d="M281 245.3L165 285L292 352Z" fill="#000a16" stroke="#000a16"></path><path d="M540 412.7L540 324L411 361.7Z" fill="#000412" stroke="#000412"></path><path d="M484 854.3L540 769.7L467 708.7Z" fill="#010f19" stroke="#010f19"></path><path d="M467 708.7L540 769.7L481 700Z" fill="#010f19" stroke="#010f19"></path><path d="M481 700L540 769.7L540 575Z" fill="#000c17" stroke="#000c17"></path><path d="M356 151.7L281 245.3L411 361.7Z" fill="#010d18" stroke="#010d18"></path><path d="M281 245.3L277 221.3L165 285Z" fill="#000714" stroke="#000714"></path><path d="M165 285L77 334L202 420.7Z" fill="#010d18" stroke="#010d18"></path><path d="M0 370L77 334L0 361.7Z" fill="#000613" stroke="#000613"></path><path d="M51 485.7L0 599.3L54 629Z" fill="#000915" stroke="#000915"></path><path d="M54 629L0 691L88 678.7Z" fill="#000915" stroke="#000915"></path><path d="M0 370L0 599.3L51 485.7Z" fill="#000613" stroke="#000613"></path><path d="M255 812.3L327 884.3L271 751.7Z" fill="#010d18" stroke="#010d18"></path><path d="M285 960L327 884.3L255 812.3Z" fill="#000714" stroke="#000714"></path><path d="M327 884.3L484 854.3L467 708.7Z" fill="#000915" stroke="#000915"></path><path d="M540 324L540 247.3L411 361.7Z" fill="#000915" stroke="#000915"></path><path d="M0 599.3L0 691L54 629Z" fill="#000a16" stroke="#000a16"></path><path d="M88 678.7L156 891.3L165 695Z" fill="#000a16" stroke="#000a16"></path><path d="M0 361.7L77 334L0 245.3Z" fill="#000613" stroke="#000613"></path><path d="M77 334L0 370L51 485.7Z" fill="#010e18" stroke="#010e18"></path><path d="M484 854.3L540 833.3L540 769.7Z" fill="#000c17" stroke="#000c17"></path><path d="M0 245.3L77 334L165 285Z" fill="#010f19" stroke="#010f19"></path><path d="M540 247.3L481 186.3L411 361.7Z" fill="#000211" stroke="#000211"></path><path d="M0 691L0 731.7L88 678.7Z" fill="#000714" stroke="#000714"></path><path d="M481 186.3L356 151.7L411 361.7Z" fill="#000714" stroke="#000714"></path><path d="M277 221.3L160 162.3L165 285Z" fill="#000000" stroke="#000000"></path><path d="M0 731.7L156 891.3L88 678.7Z" fill="#010e18" stroke="#010e18"></path><path d="M231 109.7L160 162.3L277 221.3Z" fill="#000a16" stroke="#000a16"></path><path d="M156 891.3L285 960L255 812.3Z" fill="#000915" stroke="#000915"></path><path d="M327 884.3L376 960L484 854.3Z" fill="#000714" stroke="#000714"></path><path d="M484 854.3L540 960L540 833.3Z" fill="#010e18" stroke="#010e18"></path><path d="M285 960L376 960L327 884.3Z" fill="#000211" stroke="#000211"></path><path d="M356 151.7L231 109.7L277 221.3Z" fill="#000412" stroke="#000412"></path><path d="M366 50.7L231 109.7L356 151.7Z" fill="#010d18" stroke="#010d18"></path><path d="M160 162.3L0 245.3L165 285Z" fill="#010d18" stroke="#010d18"></path><path d="M0 156.7L0 245.3L160 162.3Z" fill="#010f19" stroke="#010f19"></path><path d="M231 109.7L166 123.7L160 162.3Z" fill="#000613" stroke="#000613"></path><path d="M156 891.3L177 960L285 960Z" fill="#010d18" stroke="#010d18"></path><path d="M69 960L177 960L156 891.3Z" fill="#000412" stroke="#000412"></path><path d="M376 960L540 960L484 854.3Z" fill="#000211" stroke="#000211"></path><path d="M475 0L366 50.7L481 186.3Z" fill="#000412" stroke="#000412"></path><path d="M481 186.3L366 50.7L356 151.7Z" fill="#010f19" stroke="#010f19"></path><path d="M231 109.7L261 0L166 123.7Z" fill="#010d18" stroke="#010d18"></path><path d="M0 910.3L69 960L156 891.3Z" fill="#010d18" stroke="#010d18"></path><path d="M0 731.7L0 910.3L156 891.3Z" fill="#000a16" stroke="#000a16"></path><path d="M88 0L0 156.7L166 123.7Z" fill="#000000" stroke="#000000"></path><path d="M166 123.7L0 156.7L160 162.3Z" fill="#000714" stroke="#000714"></path><path d="M540 247.3L540 44.7L481 186.3Z" fill="#000c17" stroke="#000c17"></path><path d="M366 50.7L303 0L231 109.7Z" fill="#000714" stroke="#000714"></path><path d="M475 0L303 0L366 50.7Z" fill="#010d18" stroke="#010d18"></path><path d="M0 910.3L0 960L69 960Z" fill="#010e18" stroke="#010e18"></path><path d="M303 0L261 0L231 109.7Z" fill="#000a16" stroke="#000a16"></path><path d="M540 44.7L475 0L481 186.3Z" fill="#000915" stroke="#000915"></path><path d="M540 44.7L540 0L475 0Z" fill="#000915" stroke="#000915"></path><path d="M261 0L88 0L166 123.7Z" fill="#000c17" stroke="#000c17"></path><path d="M88 0L0 0L0 156.7Z" fill="#000000" stroke="#000000"></path></g></svg>